<svg width="18" height="18" viewBox="0 0 18 18" fill="none" xmlns="http://www.w3.org/2000/svg">
<path d="M6.14258 17C6.49759 17 6.78539 16.6743 6.78539 16.2727C6.78539 15.871 6.49759 15.5454 6.14258 15.5454C5.78756 15.5454 5.49976 15.871 5.49976 16.2727C5.49976 16.6743 5.78756 17 6.14258 17Z" stroke="#2F3E46" stroke-opacity="0.6" stroke-width="1.5267" stroke-linecap="round" stroke-linejoin="round"/>
<path d="M15.1421 17C15.4971 17 15.7849 16.6743 15.7849 16.2727C15.7849 15.871 15.4971 15.5454 15.1421 15.5454C14.7871 15.5454 14.4993 15.871 14.4993 16.2727C14.4993 16.6743 14.7871 17 15.1421 17Z" stroke="#2F3E46" stroke-opacity="0.6" stroke-width="1.5267" stroke-linecap="round" stroke-linejoin="round"/>
<path d="M1 1H3.57128L5.49974 13.3636H15.7848" stroke="#2F3E46" stroke-opacity="0.6" stroke-width="1.5267" stroke-linecap="round" stroke-linejoin="round"/>
<path d="M5.49975 10.4545H15.5213C15.5956 10.4545 15.6677 10.4255 15.7252 10.3722C15.7827 10.3189 15.8221 10.2447 15.8367 10.1622L16.9938 3.61676C17.0031 3.56398 17.002 3.50952 16.9904 3.45729C16.9789 3.40507 16.9573 3.3564 16.9271 3.31478C16.8969 3.27316 16.859 3.23964 16.816 3.21664C16.7729 3.19364 16.726 3.18173 16.6784 3.18176H4.21411" stroke="#2F3E46" stroke-opacity="0.6" stroke-width="1.5267" stroke-linecap="round" stroke-linejoin="round"/>
</svg>
