<svg width="16" height="17" viewBox="0 0 16 17" fill="none" xmlns="http://www.w3.org/2000/svg">
<g clip-path="url(#clip0_23_6)">
<path fill-rule="evenodd" clip-rule="evenodd" d="M13.3333 1.349C14.4379 1.349 15.3333 2.24443 15.3333 3.349V14.0157C15.3333 15.1203 14.4379 16.0157 13.3333 16.0157H2.66666C1.56209 16.0157 0.666656 15.1203 0.666656 14.0157V3.349C0.666656 2.24443 1.56209 1.349 2.66666 1.349H13.3333ZM13.3333 2.68233C13.7015 2.68233 14 2.98081 14 3.349V14.0157C14 14.3839 13.7015 14.6823 13.3333 14.6823H9.99999V10.0156H11.3841C11.6711 10.0156 11.9258 9.832 12.0166 9.55973L12.3119 8.67373C12.4199 8.34993 12.1789 8.0156 11.8376 8.0156H9.99999V6.68228C9.99999 6.34895 10.3333 6.01561 10.6667 6.01561H12C12.3682 6.01561 12.6667 5.71713 12.6667 5.34895V4.89162C12.6667 4.67627 12.5291 4.4832 12.3209 4.42825C11.447 4.19763 10.6667 4.19763 10.6667 4.19763C8.99999 4.19763 7.99999 5.34895 7.99999 6.34895V8.0156H6.66666C6.29847 8.0156 5.99999 8.31406 5.99999 8.68227V9.34893C5.99999 9.71713 6.29846 10.0156 6.66666 10.0156H7.99999V14.6823H2.66666C2.29847 14.6823 1.99999 14.3839 1.99999 14.0157V3.349C1.99999 2.98081 2.29847 2.68233 2.66666 2.68233H13.3333Z" fill="#0F0F0F"/>
</g>
<defs>
<clipPath id="clip0_23_6">
<rect width="16" height="16" fill="white" transform="translate(0 0.682373)"/>
</clipPath>
</defs>
</svg>
