<svg width="16" height="17" viewBox="0 0 16 17" fill="none" xmlns="http://www.w3.org/2000/svg">
<g clip-path="url(#clip0_23_2)">
<path fill-rule="evenodd" clip-rule="evenodd" d="M8 12.6824C10.2091 12.6824 12 10.8915 12 8.68237C12 6.47323 10.2091 4.68237 8 4.68237C5.79086 4.68237 4 6.47323 4 8.68237C4 10.8915 5.79086 12.6824 8 12.6824ZM8 11.349C9.47273 11.349 10.6667 10.1551 10.6667 8.68237C10.6667 7.20961 9.47273 6.01571 8 6.01571C6.52724 6.01571 5.33333 7.20961 5.33333 8.68237C5.33333 10.1551 6.52724 11.349 8 11.349Z" fill="#0F0F0F"/>
<path d="M12 4.01575C11.6318 4.01575 11.3333 4.31423 11.3333 4.68241C11.3333 5.0506 11.6318 5.34908 12 5.34908C12.3682 5.34908 12.6666 5.0506 12.6666 4.68241C12.6666 4.31423 12.3682 4.01575 12 4.01575Z" fill="#0F0F0F"/>
<path fill-rule="evenodd" clip-rule="evenodd" d="M1.10266 3.53304C0.666687 4.38869 0.666687 5.50879 0.666687 7.749V9.61566C0.666687 11.8559 0.666687 12.976 1.10266 13.8316C1.48615 14.5843 2.09807 15.1962 2.85073 15.5797C3.70637 16.0157 4.82648 16.0157 7.06669 16.0157H8.93335C11.1736 16.0157 12.2937 16.0157 13.1493 15.5797C13.902 15.1962 14.5139 14.5843 14.8974 13.8316C15.3334 12.976 15.3334 11.8559 15.3334 9.61566V7.749C15.3334 5.50879 15.3334 4.38869 14.8974 3.53304C14.5139 2.78039 13.902 2.16847 13.1493 1.78497C12.2937 1.349 11.1736 1.349 8.93335 1.349H7.06669C4.82648 1.349 3.70637 1.349 2.85073 1.78497C2.09807 2.16847 1.48615 2.78039 1.10266 3.53304ZM8.93335 2.68233H7.06669C5.92458 2.68233 5.14819 2.68337 4.54807 2.7324C3.96351 2.78016 3.66458 2.86673 3.45605 2.97298C2.95428 3.22865 2.54633 3.63659 2.29067 4.13836C2.18441 4.34689 2.09785 4.64583 2.05009 5.23039C2.00106 5.8305 2.00002 6.60689 2.00002 7.749V9.61566C2.00002 10.7578 2.00106 11.5341 2.05009 12.1343C2.09785 12.7189 2.18441 13.0178 2.29067 13.2263C2.54633 13.7281 2.95428 14.136 3.45605 14.3917C3.66458 14.4979 3.96351 14.5845 4.54807 14.6323C5.14819 14.6813 5.92458 14.6823 7.06669 14.6823H8.93335C10.0755 14.6823 10.8518 14.6813 11.452 14.6323C12.0366 14.5845 12.3355 14.4979 12.544 14.3917C13.0458 14.136 13.4537 13.7281 13.7094 13.2263C13.8156 13.0178 13.9022 12.7189 13.95 12.1343C13.999 11.5341 14 10.7578 14 9.61566V7.749C14 6.60689 13.999 5.8305 13.95 5.23039C13.9022 4.64583 13.8156 4.34689 13.7094 4.13836C13.4537 3.63659 13.0458 3.22865 12.544 2.97298C12.3355 2.86673 12.0366 2.78016 11.452 2.7324C10.8518 2.68337 10.0755 2.68233 8.93335 2.68233Z" fill="#0F0F0F"/>
</g>
<defs>
<clipPath id="clip0_23_2">
<rect width="16" height="16" fill="white" transform="translate(0 0.682373)"/>
</clipPath>
</defs>
</svg>
