<svg width="157" height="45" viewBox="0 0 157 45" fill="none" xmlns="http://www.w3.org/2000/svg">
<path d="M9.576 36V11.736H12.96V36H9.576ZM1.08 14.112V11.016H21.42V14.112H1.08ZM27.4019 36.36C25.8419 36.36 24.4259 35.976 23.1539 35.208C21.8819 34.416 20.8739 33.348 20.1299 32.004C19.4099 30.66 19.0499 29.148 19.0499 27.468C19.0499 25.788 19.4099 24.276 20.1299 22.932C20.8739 21.588 21.8699 20.52 23.1179 19.728C24.3899 18.936 25.8179 18.54 27.4019 18.54C28.6979 18.54 29.8499 18.816 30.8579 19.368C31.8899 19.896 32.7179 20.64 33.3419 21.6C33.9659 22.536 34.3139 23.628 34.3859 24.876V30.024C34.3139 31.248 33.9659 32.34 33.3419 33.3C32.7419 34.26 31.9259 35.016 30.8939 35.568C29.8859 36.096 28.7219 36.36 27.4019 36.36ZM27.9419 33.3C29.5499 33.3 30.8459 32.76 31.8299 31.68C32.8139 30.576 33.3059 29.172 33.3059 27.468C33.3059 26.292 33.0779 25.272 32.6219 24.408C32.1899 23.52 31.5659 22.836 30.7499 22.356C29.9339 21.852 28.9859 21.6 27.9059 21.6C26.8259 21.6 25.8659 21.852 25.0259 22.356C24.2099 22.86 23.5619 23.556 23.0819 24.444C22.6259 25.308 22.3979 26.304 22.3979 27.432C22.3979 28.584 22.6259 29.604 23.0819 30.492C23.5619 31.356 24.2219 32.04 25.0619 32.544C25.9019 33.048 26.8619 33.3 27.9419 33.3ZM33.0899 36V31.392L33.7019 27.216L33.0899 23.076V18.9H36.3659V36H33.0899ZM53.179 36V26.028C53.179 24.732 52.771 23.664 51.955 22.824C51.139 21.984 50.083 21.564 48.787 21.564C47.923 21.564 47.155 21.756 46.483 22.14C45.811 22.524 45.283 23.052 44.899 23.724C44.515 24.396 44.323 25.164 44.323 26.028L42.991 25.272C42.991 23.976 43.279 22.824 43.855 21.816C44.431 20.808 45.235 20.016 46.267 19.44C47.299 18.84 48.463 18.54 49.759 18.54C51.055 18.54 52.195 18.864 53.179 19.512C54.187 20.16 54.979 21.012 55.555 22.068C56.131 23.1 56.419 24.204 56.419 25.38V36H53.179ZM41.083 36V18.9H44.323V36H41.083ZM68.6177 36.36C66.9377 36.36 65.4257 35.964 64.0817 35.172C62.7377 34.38 61.6697 33.312 60.8777 31.968C60.0857 30.6 59.6897 29.076 59.6897 27.396C59.6897 25.74 60.0857 24.252 60.8777 22.932C61.6697 21.588 62.7377 20.52 64.0817 19.728C65.4257 18.936 66.9377 18.54 68.6177 18.54C70.2737 18.54 71.7737 18.936 73.1177 19.728C74.4857 20.496 75.5657 21.552 76.3577 22.896C77.1497 24.24 77.5457 25.74 77.5457 27.396C77.5457 29.076 77.1497 30.6 76.3577 31.968C75.5657 33.312 74.4857 34.38 73.1177 35.172C71.7737 35.964 70.2737 36.36 68.6177 36.36ZM68.6177 33.228C69.6977 33.228 70.6577 32.976 71.4977 32.472C72.3377 31.968 72.9977 31.284 73.4777 30.42C73.9577 29.532 74.1977 28.524 74.1977 27.396C74.1977 26.292 73.9457 25.308 73.4417 24.444C72.9617 23.58 72.3017 22.908 71.4617 22.428C70.6457 21.924 69.6977 21.672 68.6177 21.672C67.5377 21.672 66.5777 21.924 65.7377 22.428C64.8977 22.908 64.2377 23.58 63.7577 24.444C63.2777 25.308 63.0377 26.292 63.0377 27.396C63.0377 28.524 63.2777 29.532 63.7577 30.42C64.2377 31.284 64.8977 31.968 65.7377 32.472C66.5777 32.976 67.5377 33.228 68.6177 33.228ZM86.6323 36.36C85.6723 36.36 84.7603 36.24 83.8963 36C83.0563 35.736 82.2763 35.376 81.5563 34.92C80.8363 34.44 80.2123 33.876 79.6843 33.228L81.7723 31.14C82.3963 31.908 83.1163 32.484 83.9323 32.868C84.7483 33.228 85.6603 33.408 86.6683 33.408C87.6763 33.408 88.4563 33.24 89.0083 32.904C89.5603 32.544 89.8363 32.052 89.8363 31.428C89.8363 30.804 89.6083 30.324 89.1523 29.988C88.7203 29.628 88.1563 29.34 87.4603 29.124C86.7643 28.884 86.0203 28.656 85.2283 28.44C84.4603 28.2 83.7283 27.9 83.0323 27.54C82.3363 27.18 81.7603 26.688 81.3043 26.064C80.8723 25.44 80.6563 24.612 80.6563 23.58C80.6563 22.548 80.9083 21.66 81.4123 20.916C81.9163 20.148 82.6123 19.56 83.5003 19.152C84.4123 18.744 85.5043 18.54 86.7763 18.54C88.1203 18.54 89.3083 18.78 90.3403 19.26C91.3963 19.716 92.2603 20.412 92.9323 21.348L90.8443 23.436C90.3643 22.812 89.7643 22.332 89.0443 21.996C88.3483 21.66 87.5563 21.492 86.6683 21.492C85.7323 21.492 85.0123 21.66 84.5083 21.996C84.0283 22.308 83.7883 22.752 83.7883 23.328C83.7883 23.904 84.0043 24.348 84.4363 24.66C84.8683 24.972 85.4323 25.236 86.1283 25.452C86.8483 25.668 87.5923 25.896 88.3603 26.136C89.1283 26.352 89.8603 26.652 90.5563 27.036C91.2523 27.42 91.8163 27.936 92.2483 28.584C92.7043 29.232 92.9323 30.084 92.9323 31.14C92.9323 32.748 92.3563 34.02 91.2043 34.956C90.0763 35.892 88.5523 36.36 86.6323 36.36ZM108.656 36V26.028C108.656 24.732 108.248 23.664 107.432 22.824C106.616 21.984 105.56 21.564 104.264 21.564C103.4 21.564 102.632 21.756 101.96 22.14C101.288 22.524 100.76 23.052 100.376 23.724C99.9916 24.396 99.7996 25.164 99.7996 26.028L98.4676 25.272C98.4676 23.976 98.7556 22.824 99.3316 21.816C99.9076 20.808 100.712 20.016 101.744 19.44C102.776 18.84 103.94 18.54 105.236 18.54C106.532 18.54 107.672 18.828 108.656 19.404C109.664 19.98 110.456 20.784 111.032 21.816C111.608 22.848 111.896 24.036 111.896 25.38V36H108.656ZM96.5596 36V10.296H99.7996V36H96.5596ZM116.318 36V18.9H119.558V36H116.318ZM117.938 15.48C117.338 15.48 116.846 15.288 116.462 14.904C116.078 14.496 115.886 13.992 115.886 13.392C115.886 12.816 116.078 12.336 116.462 11.952C116.846 11.544 117.338 11.34 117.938 11.34C118.538 11.34 119.03 11.544 119.414 11.952C119.798 12.336 119.99 12.816 119.99 13.392C119.99 13.992 119.798 14.496 119.414 14.904C119.03 15.288 118.538 15.48 117.938 15.48Z" fill="black"/>
<path d="M148.802 26.3623C149.412 26.0783 152.015 26.8235 156 17.0352C155.757 17.635 154.92 18.2328 154.398 18.6275C152.919 19.7443 151.166 20.4997 149.24 20.8305C149.568 19.9576 149.675 18.9576 149.729 18.0467C149.774 17.3191 149.756 16.5433 149.564 15.8307C149.418 15.2879 148.963 14.7913 148.947 14.237C148.932 13.7445 149.126 13.1087 149.289 12.6338C148.831 13.9687 147.873 14.9449 146.844 15.9836C145.679 17.1595 145.205 18.2674 144.577 19.6927C144.522 19.5133 144.49 19.3285 144.436 19.1485C144.345 18.8456 144.231 18.55 144.104 18.2573C143.853 17.6812 143.544 17.1201 143.135 16.6167C142.696 16.0773 142.04 15.7655 141.479 15.3402C140.798 14.8233 140.635 14.252 140.319 13.5441C140.09 13.0299 139.849 12.5047 139.61 12C139.733 12.2595 139.575 12.8451 139.568 13.1195C139.549 13.8804 139.547 14.6412 139.549 15.4014C139.554 17.1065 139.625 18.8381 140.134 20.4943C139.699 19.7185 138.15 19.4169 137.293 19.1506C135.534 18.6024 134.292 17.7206 132.886 16.6697C133.525 17.4217 134.18 18.173 134.696 18.9957C135.179 19.7647 135.447 20.6118 135.861 21.4073C136.694 23.0098 138.182 24.1001 139.801 25.0899C138.798 24.5627 137.206 25.0634 136.156 25.2156C134.559 25.4479 133.445 24.8915 132 24.4113C132.761 24.664 133.574 25.5349 134.253 25.954C135.074 26.4621 135.92 26.9234 136.823 27.3113C138.552 28.0551 140.638 28.4831 142.54 28.0293C141.928 28.1754 141.299 28.4879 140.799 28.8248C140.235 29.2052 139.907 29.7963 139.375 30.2127C138.907 30.5795 138.348 30.8248 137.798 31.0843C139.034 30.9477 140.258 30.7052 141.426 30.3288C142.448 30.0001 143.693 29.5293 144.445 28.7569C144.503 28.9125 144.564 29.0714 144.623 29.2372C144.732 29.5544 144.885 29.8819 145.026 30.2195C145.322 30.8947 145.685 31.5992 146.101 32.2785C146.314 32.6168 146.528 32.9524 146.772 33.269C146.996 33.593 147.27 33.8878 147.514 34.1765C147.79 34.4523 148.042 34.7207 148.333 34.9435C148.598 35.1799 148.906 35.362 149.173 35.5284C149.465 35.6765 149.729 35.8056 149.993 35.8715C150.238 35.9679 150.486 35.9652 150.667 35.9958C150.855 36.0114 151.006 35.9788 151.104 35.9774C151.203 35.9706 151.254 35.9652 151.254 35.9652C151.254 35.9652 151.201 35.9584 151.104 35.9469C151.006 35.9292 150.861 35.9319 150.692 35.8803C150.524 35.8144 150.314 35.7784 150.114 35.6432C149.899 35.5413 149.694 35.3742 149.479 35.1969C149.282 34.9972 149.059 34.794 148.881 34.5318C148.682 34.29 148.52 33.9992 148.344 33.7132C148.196 33.4069 148.023 33.1052 147.902 32.7724C147.762 32.4497 147.648 32.1087 147.538 31.7704C147.332 31.0897 147.17 30.3975 147.07 29.7446C147.025 29.4158 146.951 29.104 146.931 28.8004C146.914 28.5796 146.877 28.371 146.853 28.172C148.304 28.9892 149.99 29.2093 151.701 28.8051C152.691 28.5708 153.955 28.2522 154.792 27.7359C154.089 27.5063 153.265 27.7284 152.542 27.4628C151.203 26.9696 150.406 26.1435 148.802 26.3623Z" fill="#2F3E46" stroke="#2F3E46" stroke-width="0.505986"/>
</svg>
