<svg width="80" height="80" viewBox="0 0 80 80" fill="none" xmlns="http://www.w3.org/2000/svg">
<g clip-path="url(#clip0_11_60)">
<path d="M53.9552 47.8732C55.7282 46.9267 63.2957 49.4107 74.878 16.7835C74.1715 18.7829 71.7396 20.7755 70.2224 22.0911C65.9224 25.8138 60.8276 28.3317 55.2301 29.4345C56.1834 26.5248 56.4936 23.1916 56.6521 20.1551C56.7812 17.73 56.7291 15.1441 56.1721 12.7688C55.7463 10.9595 54.424 9.30427 54.3764 7.45655C54.3334 5.81489 54.8995 3.69544 55.3727 2.11265C54.0413 6.56213 51.2561 9.81602 48.2649 13.2782C44.8797 17.1978 43.5007 20.891 41.6756 25.6417C41.5171 25.0439 41.422 24.428 41.2657 23.8279C41.0008 22.818 40.6702 21.833 40.3011 20.8571C39.572 18.9369 38.673 17.0665 37.4843 15.3886C36.2094 13.5907 34.3028 12.5514 32.6725 11.1339C30.6912 9.4107 30.2179 7.50637 29.3008 5.1469C28.6329 3.43278 27.9332 1.68242 27.2403 0C27.5958 0.864987 27.1384 2.81687 27.118 3.73167C27.0614 6.26776 27.0546 8.80385 27.0614 11.3377C27.0772 17.0212 27.2833 22.7931 28.7619 28.3136C27.4961 25.7277 22.9946 24.7223 20.5038 23.8347C15.3908 22.0074 11.7815 19.0682 7.69427 15.5652C9.55105 18.0719 11.4554 20.5763 12.9567 23.3184C14.3606 25.8817 15.1395 28.7054 16.3419 31.3569C18.7625 36.6986 23.0874 40.3329 27.7928 43.632C24.8785 41.8749 20.2524 43.5437 17.2001 44.051C12.5581 44.8254 9.32009 42.9709 5.11969 41.3699C7.33197 42.2123 9.69597 45.1152 11.6682 46.5123C14.0549 48.2061 16.514 49.7436 19.1384 51.0365C24.163 53.516 30.227 54.9425 35.7565 53.43C33.9768 53.9168 32.1471 54.9584 30.6934 56.0815C29.0563 57.3496 28.1007 59.3196 26.5564 60.7076C25.1955 61.9304 23.5697 62.7478 21.9734 63.6128C25.5646 63.1577 29.122 62.3493 32.5185 61.0948C35.4871 59.9989 39.1055 58.4297 41.2929 55.8551C41.4605 56.3736 41.6371 56.9035 41.8092 57.456C42.1262 58.5135 42.57 59.6049 42.9799 60.7303C43.8403 62.981 44.8955 65.3292 46.1047 67.5936C46.7251 68.7212 47.3456 69.8398 48.0566 70.895C48.7064 71.9751 49.5035 72.9578 50.2122 73.9202C51.0161 74.8395 51.7475 75.7339 52.5921 76.4766C53.362 77.2646 54.2587 77.8715 55.0353 78.4263C55.8845 78.9199 56.6498 79.3501 57.4175 79.5698C58.1307 79.8913 58.8508 79.8823 59.3784 79.9842C59.9241 80.0362 60.3634 79.9276 60.6464 79.923C60.934 79.9004 61.0835 79.8823 61.0835 79.8823C61.0835 79.8823 60.9295 79.8596 60.6464 79.8211C60.3634 79.7622 59.94 79.7713 59.4486 79.5992C58.9618 79.3796 58.3504 79.2596 57.7684 78.809C57.1457 78.4693 56.5502 77.9123 55.9252 77.3213C55.3501 76.6555 54.7047 75.9785 54.1862 75.1044C53.6065 74.2983 53.1355 73.3292 52.6261 72.3759C52.1936 71.3547 51.6931 70.3493 51.3399 69.2397C50.9323 68.1642 50.6017 67.0275 50.2824 65.8998C49.6824 63.6309 49.2137 61.3235 48.9216 59.1475C48.7925 58.0515 48.5774 57.0122 48.5185 56C48.4687 55.2641 48.3623 54.5689 48.2921 53.9055C52.5083 56.6295 57.4107 57.3632 62.3832 56.0159C65.2589 55.2346 68.934 54.1727 71.3682 52.4517C69.3235 51.6864 66.9278 52.4268 64.8265 51.5415C60.934 49.8975 58.6198 47.1441 53.9552 47.8732Z" fill="#2F3E46" stroke="#2F3E46" stroke-width="1.75995"/>
</g>
<defs>
<clipPath id="clip0_11_60">
<rect width="80" height="80" fill="white"/>
</clipPath>
</defs>
</svg>
