<svg width="16" height="17" viewBox="0 0 16 17" fill="none" xmlns="http://www.w3.org/2000/svg">
<g clip-path="url(#clip0_22_66)">
<path fill-rule="evenodd" clip-rule="evenodd" d="M10.968 15.0822C4.9304 15.0822 1.628 10.157 1.628 5.88648C1.628 5.74628 1.628 5.60714 1.6376 5.46851C0.9952 5.01168 0.4408 4.44447 0 3.79547C0.5984 4.05696 1.2344 4.22845 1.8848 4.30406C1.2 3.9 0.6872 3.26521 0.4416 2.51617C1.0864 2.89266 1.7912 3.15837 2.5264 3.30093C3.7696 1.99976 5.8488 1.93672 7.1712 3.1607C8.0232 3.94991 8.3856 5.12661 8.1208 6.24898C10.76 6.11824 13.2192 4.89112 14.8864 2.87242C15.7576 4.34923 15.312 6.23778 13.8696 7.18609C14.392 7.17112 14.9032 7.03265 15.36 6.78218V6.8232C15.3592 8.36146 14.2576 9.68597 12.7264 9.99078C13.2096 10.1207 13.7168 10.1396 14.208 10.0459C13.7784 11.3628 12.5456 12.2648 11.1416 12.2908C12.304 13.1903 13.74 13.6787 15.2184 13.6771C15.4792 13.6763 15.74 13.6613 16 13.6306C14.4984 14.5789 12.752 15.0822 10.968 15.0798" fill="#2F3E46"/>
</g>
<defs>
<clipPath id="clip0_22_66">
<rect width="16" height="16" fill="white" transform="matrix(-1 0 0 1 16 0.682373)"/>
</clipPath>
</defs>
</svg>
